<svg xmlns="http://www.w3.org/2000/svg" viewBox="0 0 240 240" width="240" height="240">
  <defs>
    <linearGradient id="body" x1="0" y1="0" x2="0" y2="1">
      <stop offset="0" stop-color="#9a6bff"/>
      <stop offset="1" stop-color="#4a23a0"/>
    </linearGradient>
    <linearGradient id="belly" x1="0" y1="0" x2="0" y2="1">
      <stop offset="0" stop-color="#efe6ff"/>
      <stop offset="1" stop-color="#cdb6ff"/>
    </linearGradient>
  </defs>

  <!-- book -->
  <g>
    <rect x="62" y="196" width="116" height="26" rx="6" fill="#2f9e8f"/>
    <rect x="70" y="190" width="100" height="22" rx="4" fill="#ffffff"/>
    <line x1="120" y1="190" x2="120" y2="212" stroke="#cdb6ff" stroke-width="3"/>
    <rect x="62" y="196" width="116" height="26" rx="6" fill="none" stroke="#1f7a6e" stroke-width="2"/>
  </g>

  <!-- ear tufts -->
  <path d="M74 58 L92 92 L60 86 Z" fill="#4a23a0"/>
  <path d="M166 58 L148 92 L180 86 Z" fill="#4a23a0"/>

  <!-- body -->
  <ellipse cx="120" cy="138" rx="74" ry="82" fill="url(#body)"/>
  <ellipse cx="120" cy="152" rx="44" ry="56" fill="url(#belly)"/>

  <!-- wings (slightly lifted, friendly) -->
  <path d="M48 116 q-16 30 4 60 q14 6 23 -6 q-19 -24 -13 -54 z" fill="#5b30b8"/>
  <path d="M192 116 q16 30 -4 60 q-14 6 -23 -6 q19 -24 13 -54 z" fill="#5b30b8"/>

  <!-- eyes (happy closed arcs) -->
  <path d="M76 122 q20 -22 40 0" fill="none" stroke="#2a1758" stroke-width="7" stroke-linecap="round"/>
  <path d="M124 122 q20 -22 40 0" fill="none" stroke="#2a1758" stroke-width="7" stroke-linecap="round"/>

  <!-- brows -->
  <path d="M72 92 q24 -10 48 -2" fill="none" stroke="#3a1d7a" stroke-width="5" stroke-linecap="round"/>
  <path d="M120 90 q24 -8 48 2" fill="none" stroke="#3a1d7a" stroke-width="5" stroke-linecap="round"/>

  <!-- blush -->
  <ellipse cx="74" cy="140" rx="11" ry="7" fill="#ff8fb0" opacity="0.7"/>
  <ellipse cx="166" cy="140" rx="11" ry="7" fill="#ff8fb0" opacity="0.7"/>

  <!-- beak (smiling open) -->
  <path d="M120 132 L134 146 q-14 12 -28 0 Z" fill="#ffb13b" stroke="#e8902a" stroke-width="2"/>

  <!-- feet -->
  <path d="M100 214 l-6 10 M100 214 l0 11 M100 214 l6 10" stroke="#ffb13b" stroke-width="5" stroke-linecap="round" fill="none"/>
  <path d="M140 214 l-6 10 M140 214 l0 11 M140 214 l6 10" stroke="#ffb13b" stroke-width="5" stroke-linecap="round" fill="none"/>
</svg>
